<svg xmlns="http://www.w3.org/2000/svg" viewBox="0 0 1200 760">
  <defs>
    <linearGradient id="bg" x2="1" y2="1"><stop stop-color="#07091b"/><stop offset=".55" stop-color="#172988"/><stop offset="1" stop-color="#e52d66"/></linearGradient>
    <linearGradient id="art" x2="1" y2="1"><stop stop-color="#58e8dd"/><stop offset=".5" stop-color="#8795eb"/><stop offset="1" stop-color="#f06c9d"/></linearGradient>
    <filter id="shadow"><feDropShadow dx="0" dy="22" stdDeviation="24" flood-opacity=".35"/></filter>
  </defs>
  <rect width="1200" height="760" rx="40" fill="url(#bg)"/>
  <g opacity=".2" fill="#fff"><circle cx="86" cy="86" r="3"/><circle cx="1080" cy="110" r="4"/><circle cx="1130" cy="610" r="3"/><circle cx="170" cy="650" r="4"/></g>
  <g transform="translate(96 72)" filter="url(#shadow)">
    <rect width="1008" height="616" rx="28" fill="#f7f7f4"/>
    <rect width="1008" height="58" rx="28" fill="#11121a"/>
    <circle cx="28" cy="29" r="7" fill="#ff5877"/><circle cx="51" cy="29" r="7" fill="#ffd264"/><circle cx="74" cy="29" r="7" fill="#49e0a7"/>
    <text x="112" y="37" fill="#fff" font-family="Arial" font-weight="700" font-size="17">BIDEO</text>
    <text x="725" y="36" fill="#bfc1cc" font-family="Arial" font-size="13">FEED   GALLERY   AUCTION   MY</text>
    <g transform="translate(34 91)">
      <rect width="610" height="475" rx="18" fill="#15151a"/>
      <rect x="26" y="25" width="558" height="300" rx="16" fill="url(#art)"/>
      <circle cx="305" cy="175" r="48" fill="#fff" opacity=".16"/><path d="m292 148 45 27-45 27z" fill="#fff"/>
      <text x="26" y="370" fill="#fff" font-family="Arial" font-size="29" font-weight="800">BLUE MOTION #24</text>
      <text x="26" y="402" fill="#92939a" font-family="Arial" font-size="14">VIDEO ART · CURATION · DIGITAL EXHIBITION</text>
      <g transform="translate(26 431)"><rect width="140" height="29" rx="15" fill="#263fc0"/><text x="17" y="20" fill="#fff" font-family="Arial" font-size="12"># CONTEMPORARY</text><rect x="152" width="74" height="29" rx="15" fill="#3a3a42"/><text x="171" y="20" fill="#fff" font-family="Arial" font-size="12"># VIDEO</text></g>
    </g>
    <g transform="translate(675 91)">
      <rect width="299" height="475" rx="18" fill="#fff" stroke="#dedee4"/>
      <text x="24" y="42" fill="#ee264b" font-family="Arial" font-size="14" font-weight="800">● AUCTION LIVE</text>
      <text x="24" y="91" fill="#111" font-family="Arial" font-size="33" font-weight="900">₩ 1,250,000</text>
      <text x="24" y="120" fill="#888" font-family="Arial" font-size="13">02D 04H 18M LEFT</text>
      <line x1="24" y1="148" x2="275" y2="148" stroke="#ddd"/>
      <g font-family="Arial" font-size="14"><text x="24" y="185" fill="#333">member_07</text><text x="205" y="185" fill="#111" font-weight="700">₩1,250,000</text><text x="24" y="235" fill="#333">studio_k</text><text x="211" y="235" fill="#111" font-weight="700">₩1,120,000</text><text x="24" y="285" fill="#333">collector</text><text x="217" y="285" fill="#111" font-weight="700">₩980,000</text></g>
      <line x1="24" y1="317" x2="275" y2="317" stroke="#ddd"/>
      <rect x="24" y="351" width="251" height="54" rx="12" fill="#111"/><text x="75" y="385" fill="#fff" font-family="Arial" font-size="16" font-weight="800">PLACE A BID</text>
      <g transform="translate(24 427)"><rect width="76" height="28" rx="8" fill="#eef0f8"/><text x="14" y="19" fill="#293fc1" font-family="Arial" font-size="11">PAYMENT</text><rect x="86" width="60" height="28" rx="8" fill="#eef0f8"/><text x="103" y="19" fill="#293fc1" font-family="Arial" font-size="11">S3</text><rect x="156" width="95" height="28" rx="8" fill="#eef0f8"/><text x="170" y="19" fill="#293fc1" font-family="Arial" font-size="11">AI SCORE</text></g>
    </g>
  </g>
</svg>
