<svg xmlns="http://www.w3.org/2000/svg" viewBox="0 0 1200 760">
  <defs>
    <linearGradient id="bg" x2="1" y2="1"><stop stop-color="#021711"/><stop offset=".55" stop-color="#087441"/><stop offset="1" stop-color="#6ecb67"/></linearGradient>
    <linearGradient id="video" x2="1" y2="1"><stop stop-color="#192a43"/><stop offset="1" stop-color="#315f68"/></linearGradient>
    <filter id="shadow"><feDropShadow dx="0" dy="22" stdDeviation="24" flood-opacity=".35"/></filter>
  </defs>
  <rect width="1200" height="760" rx="40" fill="url(#bg)"/>
  <path d="M0 640C250 510 390 730 620 590s360-170 580-50v220H0z" fill="#8ce38d" opacity=".16"/>
  <g transform="translate(92 68)" filter="url(#shadow)">
    <rect width="1016" height="624" rx="28" fill="#f4f7f5"/>
    <rect width="1016" height="60" rx="28" fill="#0e221b"/>
    <circle cx="30" cy="30" r="7" fill="#ff627d"/><circle cx="53" cy="30" r="7" fill="#ffd76c"/><circle cx="76" cy="30" r="7" fill="#58dda0"/>
    <text x="112" y="38" fill="#8cff9d" font-family="Arial" font-size="18" font-weight="800">CLAUSION</text>
    <text x="735" y="37" fill="#c6d4cb" font-family="Arial" font-size="13">CLASS   STUDY   COMMUNITY</text>
    <g transform="translate(30 88)">
      <rect width="650" height="348" rx="18" fill="url(#video)"/>
      <rect x="24" y="24" width="465" height="244" rx="15" fill="#11202d"/>
      <g transform="translate(52 48)">
        <rect width="409" height="191" rx="12" fill="#e9f2ee"/>
        <rect x="24" y="25" width="160" height="14" rx="7" fill="#35b865"/>
        <rect x="24" y="59" width="346" height="9" rx="4" fill="#98aaa0"/>
        <rect x="24" y="82" width="280" height="9" rx="4" fill="#c0cbc5"/>
        <rect x="24" y="118" width="95" height="48" rx="9" fill="#b8eac7"/>
        <rect x="132" y="118" width="95" height="48" rx="9" fill="#a4d8e0"/>
        <rect x="240" y="118" width="130" height="48" rx="9" fill="#d8cff0"/>
      </g>
      <g transform="translate(513 24)">
        <rect width="113" height="112" rx="12" fill="#274f49"/><circle cx="56" cy="42" r="22" fill="#78d2a0"/><path d="M23 98c8-34 58-35 67 0" fill="#c9f0d6"/>
        <rect y="132" width="113" height="112" rx="12" fill="#2b3f55"/><circle cx="56" cy="174" r="22" fill="#e5b87f"/><path d="M23 230c8-34 58-35 67 0" fill="#f5debe"/>
      </g>
      <g transform="translate(165 291)" fill="#fff"><circle cx="0" cy="0" r="18" opacity=".16"/><circle cx="54" cy="0" r="18" opacity=".16"/><circle cx="108" cy="0" r="18" fill="#e95262"/><circle cx="162" cy="0" r="18" opacity=".16"/><circle cx="216" cy="0" r="18" opacity=".16"/></g>
      <text x="24" y="328" fill="#b9d3c5" font-family="Arial" font-size="12">LIVE CLASS · 24 PARTICIPANTS · RECORDING ON</text>
    </g>
    <g transform="translate(706 88)">
      <rect width="280" height="348" rx="18" fill="#fff" stroke="#dbe4de"/>
      <text x="22" y="38" fill="#173b2a" font-family="Arial" font-size="18" font-weight="800">LEARNING FLOW</text>
      <g transform="translate(22 62)">
        <rect width="236" height="62" rx="12" fill="#e2f6e8"/><circle cx="31" cy="31" r="15" fill="#37b96c"/><text x="57" y="27" fill="#163b28" font-family="Arial" font-size="13" font-weight="700">Spring Backend</text><text x="57" y="45" fill="#6b7f73" font-family="Arial" font-size="11">API · Security · JPA</text>
        <rect y="76" width="236" height="62" rx="12" fill="#e7f0f8"/><circle cx="31" cy="107" r="15" fill="#4a96d2"/><text x="57" y="103" fill="#19354d" font-family="Arial" font-size="13" font-weight="700">React Classroom</text><text x="57" y="121" fill="#6b7f73" font-family="Arial" font-size="11">Query · State · UI</text>
        <rect y="152" width="236" height="62" rx="12" fill="#f2eafb"/><circle cx="31" cy="183" r="15" fill="#9462cf"/><text x="57" y="179" fill="#3c2655" font-family="Arial" font-size="13" font-weight="700">Realtime Infra</text><text x="57" y="197" fill="#756580" font-family="Arial" font-size="11">LiveKit · WebSocket</text>
        <rect y="228" width="236" height="42" rx="12" fill="#142d22"/><text x="60" y="255" fill="#8cff9d" font-family="Arial" font-size="13" font-weight="800">AI STUDY ASSIST</text>
      </g>
    </g>
    <g transform="translate(30 461)">
      <text x="0" y="22" fill="#163b28" font-family="Arial" font-size="16" font-weight="800">MY COURSES</text>
      <g transform="translate(0 40)"><rect width="300" height="92" rx="15" fill="#dcf3e3"/><rect x="18" y="18" width="58" height="56" rx="10" fill="#36b86a"/><text x="94" y="42" fill="#163b28" font-family="Arial" font-size="14" font-weight="700">Backend Architecture</text><text x="94" y="64" fill="#728177" font-family="Arial" font-size="11">78% COMPLETE</text><rect x="94" y="73" width="170" height="5" rx="3" fill="#bdd8c5"/><rect x="94" y="73" width="133" height="5" rx="3" fill="#36b86a"/></g>
      <g transform="translate(320 40)"><rect width="300" height="92" rx="15" fill="#e7eff7"/><rect x="18" y="18" width="58" height="56" rx="10" fill="#438fc9"/><text x="94" y="42" fill="#18364e" font-family="Arial" font-size="14" font-weight="700">Realtime Web Class</text><text x="94" y="64" fill="#728177" font-family="Arial" font-size="11">54% COMPLETE</text><rect x="94" y="73" width="170" height="5" rx="3" fill="#c7d4df"/><rect x="94" y="73" width="92" height="5" rx="3" fill="#438fc9"/></g>
      <g transform="translate(640 40)"><rect width="316" height="92" rx="15" fill="#f0eafb"/><rect x="18" y="18" width="58" height="56" rx="10" fill="#8c5bc8"/><text x="94" y="42" fill="#3c2852" font-family="Arial" font-size="14" font-weight="700">AI Learning Tools</text><text x="94" y="64" fill="#786d80" font-family="Arial" font-size="11">NEW COURSE</text></g>
    </g>
  </g>
</svg>
