<svg xmlns="http://www.w3.org/2000/svg" viewBox="0 0 1200 760">
  <defs>
    <linearGradient id="bg" x2="1" y2="1"><stop stop-color="#14051f"/><stop offset=".52" stop-color="#63208a"/><stop offset="1" stop-color="#df4d9d"/></linearGradient>
    <linearGradient id="map" x2="1" y2="1"><stop stop-color="#132736"/><stop offset="1" stop-color="#1b4f5a"/></linearGradient>
    <filter id="shadow"><feDropShadow dx="0" dy="22" stdDeviation="24" flood-opacity=".36"/></filter>
  </defs>
  <rect width="1200" height="760" rx="40" fill="url(#bg)"/>
  <g opacity=".14" stroke="#fff" fill="none"><path d="M0 120h1200M0 640h1200M110 0v760M1090 0v760"/><circle cx="1050" cy="110" r="140"/></g>
  <g transform="translate(90 68)" filter="url(#shadow)">
    <rect width="1020" height="624" rx="28" fill="#f7f6f9"/>
    <rect width="1020" height="60" rx="28" fill="#1a1022"/>
    <circle cx="30" cy="30" r="7" fill="#ff627d"/><circle cx="53" cy="30" r="7" fill="#ffd76c"/><circle cx="76" cy="30" r="7" fill="#58dda0"/>
    <text x="112" y="38" fill="#f493ff" font-family="Arial" font-size="18" font-weight="800">GGSHOP</text>
    <text x="715" y="37" fill="#cbbdd1" font-family="Arial" font-size="13">CHARGER   V2G   P2P MARKET</text>
    <g transform="translate(30 88)">
      <rect width="620" height="340" rx="18" fill="url(#map)"/>
      <g stroke="#7398a1" stroke-width="2" opacity=".46" fill="none"><path d="M0 78c120 20 170-40 290-18s180 84 330 50M0 238c130-38 225 38 350 6s170-16 270 35M110 0c25 95-38 155 25 340M440 0c-30 110 45 165-10 340"/></g>
      <g fill="#d66cff" stroke="#fff" stroke-width="4"><circle cx="126" cy="110" r="13"/><circle cx="286" cy="187" r="13"/><circle cx="478" cy="98" r="13"/><circle cx="510" cy="260" r="13"/><circle cx="198" cy="270" r="13"/></g>
      <g transform="translate(238 72)"><rect width="160" height="78" rx="14" fill="#fff"/><text x="16" y="28" fill="#291236" font-family="Arial" font-size="13" font-weight="800">SEOUL STATION #24</text><text x="16" y="50" fill="#748086" font-family="Arial" font-size="11">AVAILABLE  6 / 8</text><rect x="16" y="59" width="128" height="6" rx="3" fill="#d9dce0"/><rect x="16" y="59" width="96" height="6" rx="3" fill="#8b42c4"/></g>
      <g transform="translate(24 286)"><rect width="572" height="34" rx="10" fill="#0d1923" opacity=".88"/><text x="18" y="22" fill="#c8e7ec" font-family="Arial" font-size="12">5 CHARGERS NEARBY  ·  REAL-TIME STATUS  ·  ROUTE SEARCH</text></g>
    </g>
    <g transform="translate(680 88)">
      <rect width="310" height="340" rx="18" fill="#fff" stroke="#e0dbe4"/>
      <text x="24" y="39" fill="#2b1733" font-family="Arial" font-size="18" font-weight="800">V2G ENERGY</text>
      <text x="24" y="70" fill="#888" font-family="Arial" font-size="12">TODAY'S TRADE</text>
      <text x="24" y="112" fill="#7f2cb0" font-family="Arial" font-size="34" font-weight="900">42.8 kWh</text>
      <g transform="translate(24 142)">
        <rect width="262" height="102" rx="14" fill="#f5edf9"/>
        <path d="M18 76 55 62l35 8 37-42 40 24 38-34 39 23" fill="none" stroke="#a23bc9" stroke-width="6" stroke-linecap="round" stroke-linejoin="round"/>
        <g fill="#e14e9d"><circle cx="55" cy="62" r="5"/><circle cx="127" cy="28" r="5"/><circle cx="205" cy="18" r="5"/></g>
      </g>
      <g transform="translate(24 264)"><rect width="124" height="52" rx="12" fill="#26122e"/><text x="17" y="23" fill="#d7bfdc" font-family="Arial" font-size="10">SELL PRICE</text><text x="17" y="41" fill="#fff" font-family="Arial" font-size="16" font-weight="800">₩ 184 / kWh</text><rect x="138" width="124" height="52" rx="12" fill="#8a31b5"/><text x="165" y="31" fill="#fff" font-family="Arial" font-size="13" font-weight="800">TRADE NOW</text></g>
    </g>
    <g transform="translate(30 455)">
      <text x="0" y="20" fill="#30153a" font-family="Arial" font-size="16" font-weight="800">P2P MARKET</text>
      <g transform="translate(0 37)"><rect width="304" height="104" rx="15" fill="#eee8f1"/><rect x="15" y="15" width="73" height="74" rx="12" fill="#9f3bc5"/><path d="M49 29v43m-16-21h32" stroke="#fff" stroke-width="8" stroke-linecap="round"/><text x="106" y="37" fill="#321640" font-family="Arial" font-size="14" font-weight="700">Home Charger Share</text><text x="106" y="61" fill="#807486" font-family="Arial" font-size="11">Mapo-gu · Available now</text><text x="106" y="83" fill="#9d38c4" font-family="Arial" font-size="13" font-weight="800">₩ 170 / kWh</text></g>
      <g transform="translate(324 37)"><rect width="304" height="104" rx="15" fill="#e7eff2"/><rect x="15" y="15" width="73" height="74" rx="12" fill="#357b89"/><path d="M39 72h27V35H39zm6-47h15" fill="none" stroke="#fff" stroke-width="7"/><text x="106" y="37" fill="#173642" font-family="Arial" font-size="14" font-weight="700">EV Battery Exchange</text><text x="106" y="61" fill="#718085" font-family="Arial" font-size="11">Gangnam-gu · 12 km</text><text x="106" y="83" fill="#337c89" font-family="Arial" font-size="13" font-weight="800">82% CHARGED</text></g>
      <g transform="translate(648 37)"><rect width="342" height="104" rx="15" fill="#f3e9ef"/><rect x="15" y="15" width="73" height="74" rx="12" fill="#d94991"/><path d="M34 53h40m-20-20v40" stroke="#fff" stroke-width="8" stroke-linecap="round"/><text x="106" y="37" fill="#46182f" font-family="Arial" font-size="14" font-weight="700">Register Energy Post</text><text x="106" y="61" fill="#84727b" font-family="Arial" font-size="11">File · Tag · Search · Paging</text><text x="106" y="83" fill="#d3448d" font-family="Arial" font-size="13" font-weight="800">NEW LISTING</text></g>
    </g>
  </g>
</svg>
