<svg xmlns="http://www.w3.org/2000/svg" viewBox="0 0 900 560">
  <defs><linearGradient id="bg" x2="1" y2="1"><stop stop-color="#101036"/><stop offset=".48" stop-color="#3531a4"/><stop offset="1" stop-color="#df3d9d"/></linearGradient><radialGradient id="core"><stop stop-color="#fff"/><stop offset=".25" stop-color="#75f7ff"/><stop offset="1" stop-color="#7652ff"/></radialGradient></defs>
  <rect width="900" height="560" rx="32" fill="url(#bg)"/>
  <g stroke="#89eaff" stroke-width="3" opacity=".65"><path d="M450 280 140 130M450 280 160 420M450 280 742 120M450 280 755 410M450 280 450 70"/></g>
  <g fill="#11103c" stroke="#ad9fff" stroke-width="3">
    <rect x="64" y="75" width="190" height="112" rx="22"/><rect x="74" y="360" width="190" height="112" rx="22"/>
    <rect x="646" y="65" width="190" height="112" rx="22"/><rect x="646" y="355" width="190" height="112" rx="22"/>
  </g>
  <g fill="#7cecff"><rect x="96" y="105" width="115" height="12" rx="6"/><rect x="96" y="133" width="75" height="12" rx="6"/><circle cx="129" cy="416" r="22"/><circle cx="194" cy="416" r="22"/><path d="M151 416h21" stroke="#ff96d9" stroke-width="7"/></g>
  <g fill="#ff94d1"><path d="M688 112h106v18H688zm0 35h70v12h-70z"/><path d="M690 400h100v30H690z"/><path d="m707 400 18-24h30l18 24" fill="#ffcf67"/></g>
  <g transform="translate(326 156)">
    <circle cx="124" cy="124" r="124" fill="#16144b" stroke="#a4f7ff" stroke-width="4"/>
    <circle cx="124" cy="124" r="79" fill="url(#core)"/>
    <g fill="#111340"><circle cx="99" cy="112" r="10"/><circle cx="149" cy="112" r="10"/><rect x="99" y="144" width="50" height="12" rx="6"/></g>
    <g fill="#ff77c8"><circle cx="124" cy="-18" r="12"/><circle cx="124" cy="266" r="12"/><circle cx="-18" cy="124" r="12"/><circle cx="266" cy="124" r="12"/></g>
  </g>
  <g fill="#fff"><circle cx="286" cy="80" r="5"/><circle cx="580" cy="92" r="7"/><circle cx="598" cy="475" r="5"/></g>
</svg>
