<svg xmlns="http://www.w3.org/2000/svg" viewBox="0 0 900 560">
  <defs><linearGradient id="bg" x2="1" y2="1"><stop stop-color="#052b24"/><stop offset=".52" stop-color="#087b54"/><stop offset="1" stop-color="#40d77d"/></linearGradient></defs>
  <rect width="900" height="560" rx="32" fill="url(#bg)"/>
  <g stroke="#a8ffd0" stroke-width="4" fill="none" opacity=".75"><path d="M120 280h145M635 280h145M450 100v85M450 375v85"/><path d="m265 280 85-55m-85 55 85 55m285-55-85-55m85 55-85 55"/></g>
  <g fill="#eafff1" stroke="#9cffc5" stroke-width="3">
    <rect x="68" y="220" width="170" height="120" rx="25"/>
    <rect x="662" y="220" width="170" height="120" rx="25"/>
    <rect x="365" y="45" width="170" height="110" rx="25"/>
    <rect x="365" y="405" width="170" height="110" rx="25"/>
  </g>
  <g fill="#075d42"><path d="M112 280h82m-31-30 31 30-31 30" fill="none" stroke="#075d42" stroke-width="10" stroke-linecap="round"/><ellipse cx="747" cy="253" rx="50" ry="17"/><path d="M697 253v50c0 10 22 18 50 18s50-8 50-18v-50" fill="#1eaa71"/><circle cx="450" cy="100" r="32"/><path d="M420 460h60m-45-22h30m-25 44h20" stroke="#075d42" stroke-width="9" stroke-linecap="round"/></g>
  <g transform="translate(350 185)">
    <circle cx="100" cy="95" r="112" fill="#082f27" stroke="#b5ffd4" stroke-width="4"/>
    <path d="M65 128c-24-56 5-111 88-129-10 69-35 122-88 129Z" fill="#67e48d"/>
    <path d="M70 124c24-49 50-77 83-123" stroke="#e4ffe8" stroke-width="6" fill="none" stroke-linecap="round"/>
  </g>
</svg>
